<mxfile host="65bd71144e">
    <diagram id="jMHPaQFWCdttw8wIS-yy" name="Page-1">
        <mxGraphModel dx="1782" dy="1049" grid="1" gridSize="10" guides="1" tooltips="1" connect="1" arrows="1" fold="1" page="1" pageScale="1" pageWidth="850" pageHeight="1100" math="0" shadow="0">
            <root>
                <mxCell id="0"/>
                <mxCell id="1" parent="0"/>
                <mxCell id="2" value="" style="rounded=0;whiteSpace=wrap;html=1;" vertex="1" parent="1">
                    <mxGeometry x="-180" y="910" width="250" height="460" as="geometry"/>
                </mxCell>
                <mxCell id="6" style="edgeStyle=none;html=1;exitX=0;exitY=0.5;exitDx=0;exitDy=0;entryX=0.5;entryY=0;entryDx=0;entryDy=0;" edge="1" parent="1" source="3" target="2">
                    <mxGeometry relative="1" as="geometry">
                        <Array as="points">
                            <mxPoint x="-55" y="780"/>
                        </Array>
                    </mxGeometry>
                </mxCell>
                <mxCell id="7" value="No" style="edgeLabel;html=1;align=center;verticalAlign=middle;resizable=0;points=[];" vertex="1" connectable="0" parent="6">
                    <mxGeometry x="-0.2985" y="1" relative="1" as="geometry">
                        <mxPoint as="offset"/>
                    </mxGeometry>
                </mxCell>
                <mxCell id="8" style="edgeStyle=none;html=1;entryX=0.5;entryY=0;entryDx=0;entryDy=0;" edge="1" parent="1" source="3" target="4">
                    <mxGeometry relative="1" as="geometry">
                        <Array as="points">
                            <mxPoint x="435" y="780"/>
                        </Array>
                    </mxGeometry>
                </mxCell>
                <mxCell id="9" value="Yes" style="edgeLabel;html=1;align=center;verticalAlign=middle;resizable=0;points=[];" vertex="1" connectable="0" parent="8">
                    <mxGeometry x="-0.5446" y="-2" relative="1" as="geometry">
                        <mxPoint as="offset"/>
                    </mxGeometry>
                </mxCell>
                <mxCell id="3" value="user logged in?" style="rhombus;whiteSpace=wrap;html=1;" vertex="1" parent="1">
                    <mxGeometry x="140" y="730" width="100" height="100" as="geometry"/>
                </mxCell>
                <mxCell id="4" value="" style="rounded=0;whiteSpace=wrap;html=1;" vertex="1" parent="1">
                    <mxGeometry x="310" y="910" width="250" height="460" as="geometry"/>
                </mxCell>
                <mxCell id="10" value="Pulse: Social Media for Humans" style="text;html=1;align=center;verticalAlign=middle;whiteSpace=wrap;rounded=0;fontSize=20;" vertex="1" parent="1">
                    <mxGeometry x="-150" y="940" width="200" height="50" as="geometry"/>
                </mxCell>
                <mxCell id="11" value="Login" style="rounded=1;whiteSpace=wrap;html=1;" vertex="1" parent="1">
                    <mxGeometry x="-92.5" y="1100" width="75" height="30" as="geometry"/>
                </mxCell>
                <mxCell id="12" value="&lt;font style=&quot;color: light-dark(rgb(0, 0, 0), rgb(161, 161, 161));&quot;&gt;username&lt;/font&gt;" style="rounded=0;whiteSpace=wrap;html=1;" vertex="1" parent="1">
                    <mxGeometry x="-115" y="1040" width="120" height="20" as="geometry"/>
                </mxCell>
                <mxCell id="13" value="&lt;font style=&quot;color: light-dark(rgb(0, 0, 0), rgb(161, 161, 161));&quot;&gt;password&lt;/font&gt;" style="rounded=0;whiteSpace=wrap;html=1;" vertex="1" parent="1">
                    <mxGeometry x="-115" y="1070" width="120" height="20" as="geometry"/>
                </mxCell>
                <mxCell id="15" value="No account?&amp;nbsp; Sign up &lt;font style=&quot;color: light-dark(rgb(0, 0, 0), rgb(3, 78, 255));&quot;&gt;here&lt;/font&gt;" style="text;html=1;align=center;verticalAlign=middle;whiteSpace=wrap;rounded=0;" vertex="1" parent="1">
                    <mxGeometry x="-100" y="1180" width="80" height="30" as="geometry"/>
                </mxCell>
                <mxCell id="17" style="edgeStyle=none;html=1;exitX=1;exitY=0.5;exitDx=0;exitDy=0;entryX=0;entryY=0.446;entryDx=0;entryDy=0;entryPerimeter=0;" edge="1" parent="1" source="11" target="4">
                    <mxGeometry relative="1" as="geometry"/>
                </mxCell>
                <mxCell id="18" value="&lt;font style=&quot;font-size: 20px; color: light-dark(rgb(0, 0, 0), rgb(255, 255, 255));&quot;&gt;Home&lt;/font&gt;" style="text;html=1;align=center;verticalAlign=middle;whiteSpace=wrap;rounded=0;fontColor=light-dark(#000000,#FFFFFF);" vertex="1" parent="1">
                    <mxGeometry x="405" y="920" width="60" height="30" as="geometry"/>
                </mxCell>
                <mxCell id="19" value="" style="rounded=1;whiteSpace=wrap;html=1;" vertex="1" parent="1">
                    <mxGeometry x="320" y="970" width="230" height="130" as="geometry"/>
                </mxCell>
                <mxCell id="20" value="Post Title" style="text;html=1;align=center;verticalAlign=middle;whiteSpace=wrap;rounded=0;" vertex="1" parent="1">
                    <mxGeometry x="405" y="970" width="60" height="30" as="geometry"/>
                </mxCell>
                <mxCell id="21" value="tag1,tag2,tag3" style="text;html=1;align=center;verticalAlign=middle;whiteSpace=wrap;rounded=0;" vertex="1" parent="1">
                    <mxGeometry x="405" y="990" width="60" height="30" as="geometry"/>
                </mxCell>
                <mxCell id="22" value="" style="sketch=0;outlineConnect=0;fontColor=#232F3E;gradientColor=none;fillColor=light-dark(#ED7100,#FFFFFF);strokeColor=none;dashed=0;verticalLabelPosition=bottom;verticalAlign=top;align=center;html=1;fontSize=12;fontStyle=0;aspect=fixed;pointerEvents=1;shape=mxgraph.aws4.container_registry_image;" vertex="1" parent="1">
                    <mxGeometry x="400" y="1020" width="60" height="60" as="geometry"/>
                </mxCell>
                <mxCell id="23" value="" style="rounded=1;whiteSpace=wrap;html=1;" vertex="1" parent="1">
                    <mxGeometry x="320" y="1110" width="230" height="130" as="geometry"/>
                </mxCell>
                <mxCell id="24" value="Post Title" style="text;html=1;align=center;verticalAlign=middle;whiteSpace=wrap;rounded=0;" vertex="1" parent="1">
                    <mxGeometry x="405" y="1110" width="60" height="30" as="geometry"/>
                </mxCell>
                <mxCell id="25" value="tag1,tag2,tag3" style="text;html=1;align=center;verticalAlign=middle;whiteSpace=wrap;rounded=0;" vertex="1" parent="1">
                    <mxGeometry x="405" y="1130" width="60" height="30" as="geometry"/>
                </mxCell>
                <mxCell id="26" value="" style="sketch=0;outlineConnect=0;fontColor=#232F3E;gradientColor=none;fillColor=light-dark(#ED7100,#FFFFFF);strokeColor=none;dashed=0;verticalLabelPosition=bottom;verticalAlign=top;align=center;html=1;fontSize=12;fontStyle=0;aspect=fixed;pointerEvents=1;shape=mxgraph.aws4.container_registry_image;" vertex="1" parent="1">
                    <mxGeometry x="400" y="1160" width="60" height="60" as="geometry"/>
                </mxCell>
                <mxCell id="27" value="" style="rounded=1;whiteSpace=wrap;html=1;" vertex="1" parent="1">
                    <mxGeometry x="320" y="1250" width="230" height="120" as="geometry"/>
                </mxCell>
                <mxCell id="28" value="Post Title" style="text;html=1;align=center;verticalAlign=middle;whiteSpace=wrap;rounded=0;" vertex="1" parent="1">
                    <mxGeometry x="405" y="1250" width="60" height="30" as="geometry"/>
                </mxCell>
                <mxCell id="29" value="tag1,tag2,tag3" style="text;html=1;align=center;verticalAlign=middle;whiteSpace=wrap;rounded=0;" vertex="1" parent="1">
                    <mxGeometry x="405" y="1270" width="60" height="30" as="geometry"/>
                </mxCell>
                <mxCell id="30" value="" style="sketch=0;outlineConnect=0;fontColor=#232F3E;gradientColor=none;fillColor=light-dark(#ED7100,#FFFFFF);strokeColor=none;dashed=0;verticalLabelPosition=bottom;verticalAlign=top;align=center;html=1;fontSize=12;fontStyle=0;aspect=fixed;pointerEvents=1;shape=mxgraph.aws4.container_registry_image;" vertex="1" parent="1">
                    <mxGeometry x="400" y="1300" width="60" height="60" as="geometry"/>
                </mxCell>
                <mxCell id="34" value="" style="group" vertex="1" connectable="0" parent="1">
                    <mxGeometry x="320" y="920" width="20" height="10" as="geometry"/>
                </mxCell>
                <mxCell id="31" value="" style="endArrow=none;html=1;" edge="1" parent="34">
                    <mxGeometry width="50" height="50" relative="1" as="geometry">
                        <mxPoint as="sourcePoint"/>
                        <mxPoint x="20" as="targetPoint"/>
                    </mxGeometry>
                </mxCell>
                <mxCell id="32" value="" style="endArrow=none;html=1;" edge="1" parent="34">
                    <mxGeometry width="50" height="50" relative="1" as="geometry">
                        <mxPoint y="10" as="sourcePoint"/>
                        <mxPoint x="20" y="10" as="targetPoint"/>
                    </mxGeometry>
                </mxCell>
                <mxCell id="33" value="" style="endArrow=none;html=1;" edge="1" parent="34">
                    <mxGeometry width="50" height="50" relative="1" as="geometry">
                        <mxPoint y="4.800000000000011" as="sourcePoint"/>
                        <mxPoint x="20" y="4.800000000000011" as="targetPoint"/>
                    </mxGeometry>
                </mxCell>
                <mxCell id="50" value="" style="group" vertex="1" connectable="0" parent="1">
                    <mxGeometry x="310" y="1340" width="250" height="30" as="geometry"/>
                </mxCell>
                <mxCell id="35" value="" style="rounded=0;whiteSpace=wrap;html=1;" vertex="1" parent="50">
                    <mxGeometry width="250" height="30" as="geometry"/>
                </mxCell>
                <mxCell id="37" value="" style="dashed=0;outlineConnect=0;html=1;align=center;labelPosition=center;verticalLabelPosition=bottom;verticalAlign=top;shape=mxgraph.weblogos.feed;fillColor=#000000" vertex="1" parent="50">
                    <mxGeometry x="10" width="20" height="20" as="geometry"/>
                </mxCell>
                <mxCell id="39" value="" style="sketch=0;outlineConnect=0;fontColor=#232F3E;gradientColor=none;fillColor=light-dark(#232F3D,#FFFFFF);strokeColor=none;dashed=0;verticalLabelPosition=bottom;verticalAlign=top;align=center;html=1;fontSize=12;fontStyle=0;aspect=fixed;pointerEvents=1;shape=mxgraph.aws4.user;" vertex="1" parent="50">
                    <mxGeometry x="105" width="20" height="20" as="geometry"/>
                </mxCell>
                <mxCell id="40" value="" style="sketch=0;pointerEvents=1;shadow=0;dashed=0;html=1;strokeColor=none;fillColor=light-dark(#505050,#FFFFFF);labelPosition=center;verticalLabelPosition=bottom;verticalAlign=top;outlineConnect=0;align=center;shape=mxgraph.office.concepts.search;" vertex="1" parent="50">
                    <mxGeometry x="155" width="30" height="20" as="geometry"/>
                </mxCell>
                <mxCell id="41" value="" style="sketch=0;pointerEvents=1;shadow=0;dashed=0;html=1;strokeColor=none;fillColor=light-dark(#505050,#FFFFFF);labelPosition=center;verticalLabelPosition=bottom;verticalAlign=top;outlineConnect=0;align=center;shape=mxgraph.office.concepts.settings_office_365;" vertex="1" parent="50">
                    <mxGeometry x="210" width="30" height="20" as="geometry"/>
                </mxCell>
                <mxCell id="43" value="" style="html=1;verticalLabelPosition=bottom;align=center;labelBackgroundColor=#ffffff;verticalAlign=top;strokeWidth=2;strokeColor=light-dark(#0080F0,#FFFFFF);shadow=0;dashed=0;shape=mxgraph.ios7.icons.mail;" vertex="1" parent="50">
                    <mxGeometry x="50" y="3.5" width="30" height="16.5" as="geometry"/>
                </mxCell>
                <mxCell id="45" value="Feed" style="text;html=1;align=center;verticalAlign=middle;whiteSpace=wrap;rounded=0;fontSize=8;" vertex="1" parent="50">
                    <mxGeometry x="10" y="20" width="20" height="10" as="geometry"/>
                </mxCell>
                <mxCell id="46" value="Messages" style="text;html=1;align=center;verticalAlign=middle;whiteSpace=wrap;rounded=0;fontSize=8;" vertex="1" parent="50">
                    <mxGeometry x="42.5" y="20" width="45" height="10" as="geometry"/>
                </mxCell>
                <mxCell id="47" value="Profile" style="text;html=1;align=center;verticalAlign=middle;whiteSpace=wrap;rounded=0;fontSize=8;" vertex="1" parent="50">
                    <mxGeometry x="92.5" y="20" width="45" height="10" as="geometry"/>
                </mxCell>
                <mxCell id="48" value="Search" style="text;html=1;align=center;verticalAlign=middle;whiteSpace=wrap;rounded=0;fontSize=8;" vertex="1" parent="50">
                    <mxGeometry x="147.5" y="20" width="45" height="10" as="geometry"/>
                </mxCell>
                <mxCell id="49" value="Settings" style="text;html=1;align=center;verticalAlign=middle;whiteSpace=wrap;rounded=0;fontSize=8;" vertex="1" parent="50">
                    <mxGeometry x="202.5" y="20" width="45" height="10" as="geometry"/>
                </mxCell>
                <mxCell id="51" value="" style="rounded=0;whiteSpace=wrap;html=1;" vertex="1" parent="1">
                    <mxGeometry x="-540" y="910" width="250" height="460" as="geometry"/>
                </mxCell>
                <mxCell id="54" style="edgeStyle=none;html=1;exitX=0.75;exitY=1;exitDx=0;exitDy=0;entryX=1;entryY=0.739;entryDx=0;entryDy=0;entryPerimeter=0;" edge="1" parent="1" source="15" target="51">
                    <mxGeometry relative="1" as="geometry">
                        <Array as="points">
                            <mxPoint x="-40" y="1250"/>
                        </Array>
                    </mxGeometry>
                </mxCell>
                <mxCell id="55" value="Create a Pulse account" style="text;html=1;align=center;verticalAlign=middle;whiteSpace=wrap;rounded=0;fontSize=20;" vertex="1" parent="1">
                    <mxGeometry x="-515" y="950" width="200" height="50" as="geometry"/>
                </mxCell>
                <mxCell id="56" value="username" style="rounded=0;whiteSpace=wrap;html=1;" vertex="1" parent="1">
                    <mxGeometry x="-515" y="1040" width="195" height="20" as="geometry"/>
                </mxCell>
                <mxCell id="57" value="email address" style="rounded=0;whiteSpace=wrap;html=1;" vertex="1" parent="1">
                    <mxGeometry x="-515" y="1080" width="195" height="20" as="geometry"/>
                </mxCell>
                <mxCell id="58" value="password" style="rounded=0;whiteSpace=wrap;html=1;" vertex="1" parent="1">
                    <mxGeometry x="-515" y="1120" width="195" height="20" as="geometry"/>
                </mxCell>
                <mxCell id="59" value="Create Account" style="rounded=1;whiteSpace=wrap;html=1;" vertex="1" parent="1">
                    <mxGeometry x="-467.5" y="1170" width="100" height="40" as="geometry"/>
                </mxCell>
                <mxCell id="62" value="" style="rounded=0;whiteSpace=wrap;html=1;" vertex="1" parent="1">
                    <mxGeometry x="670" y="910" width="250" height="460" as="geometry"/>
                </mxCell>
                <mxCell id="63" value="&lt;font style=&quot;font-size: 20px; color: light-dark(rgb(0, 0, 0), rgb(255, 255, 255));&quot;&gt;Home&lt;/font&gt;" style="text;html=1;align=center;verticalAlign=middle;whiteSpace=wrap;rounded=0;fontColor=light-dark(#000000,#FFFFFF);" vertex="1" parent="1">
                    <mxGeometry x="765" y="920" width="60" height="30" as="geometry"/>
                </mxCell>
                <mxCell id="64" value="" style="rounded=1;whiteSpace=wrap;html=1;" vertex="1" parent="1">
                    <mxGeometry x="680" y="970" width="230" height="130" as="geometry"/>
                </mxCell>
                <mxCell id="65" value="Post Title" style="text;html=1;align=center;verticalAlign=middle;whiteSpace=wrap;rounded=0;" vertex="1" parent="1">
                    <mxGeometry x="765" y="970" width="60" height="30" as="geometry"/>
                </mxCell>
                <mxCell id="66" value="tag1,tag2,tag3" style="text;html=1;align=center;verticalAlign=middle;whiteSpace=wrap;rounded=0;" vertex="1" parent="1">
                    <mxGeometry x="765" y="990" width="60" height="30" as="geometry"/>
                </mxCell>
                <mxCell id="67" value="" style="sketch=0;outlineConnect=0;fontColor=#232F3E;gradientColor=none;fillColor=light-dark(#ED7100,#FFFFFF);strokeColor=none;dashed=0;verticalLabelPosition=bottom;verticalAlign=top;align=center;html=1;fontSize=12;fontStyle=0;aspect=fixed;pointerEvents=1;shape=mxgraph.aws4.container_registry_image;" vertex="1" parent="1">
                    <mxGeometry x="760" y="1020" width="60" height="60" as="geometry"/>
                </mxCell>
                <mxCell id="68" value="" style="rounded=1;whiteSpace=wrap;html=1;" vertex="1" parent="1">
                    <mxGeometry x="680" y="1110" width="230" height="130" as="geometry"/>
                </mxCell>
                <mxCell id="69" value="Post Title" style="text;html=1;align=center;verticalAlign=middle;whiteSpace=wrap;rounded=0;" vertex="1" parent="1">
                    <mxGeometry x="765" y="1110" width="60" height="30" as="geometry"/>
                </mxCell>
                <mxCell id="70" value="tag1,tag2,tag3" style="text;html=1;align=center;verticalAlign=middle;whiteSpace=wrap;rounded=0;" vertex="1" parent="1">
                    <mxGeometry x="765" y="1130" width="60" height="30" as="geometry"/>
                </mxCell>
                <mxCell id="71" value="" style="sketch=0;outlineConnect=0;fontColor=#232F3E;gradientColor=none;fillColor=light-dark(#ED7100,#FFFFFF);strokeColor=none;dashed=0;verticalLabelPosition=bottom;verticalAlign=top;align=center;html=1;fontSize=12;fontStyle=0;aspect=fixed;pointerEvents=1;shape=mxgraph.aws4.container_registry_image;" vertex="1" parent="1">
                    <mxGeometry x="760" y="1160" width="60" height="60" as="geometry"/>
                </mxCell>
                <mxCell id="72" value="" style="rounded=1;whiteSpace=wrap;html=1;" vertex="1" parent="1">
                    <mxGeometry x="680" y="1250" width="230" height="120" as="geometry"/>
                </mxCell>
                <mxCell id="73" value="Post Title" style="text;html=1;align=center;verticalAlign=middle;whiteSpace=wrap;rounded=0;" vertex="1" parent="1">
                    <mxGeometry x="765" y="1250" width="60" height="30" as="geometry"/>
                </mxCell>
                <mxCell id="74" value="tag1,tag2,tag3" style="text;html=1;align=center;verticalAlign=middle;whiteSpace=wrap;rounded=0;" vertex="1" parent="1">
                    <mxGeometry x="765" y="1270" width="60" height="30" as="geometry"/>
                </mxCell>
                <mxCell id="75" value="" style="sketch=0;outlineConnect=0;fontColor=#232F3E;gradientColor=none;fillColor=light-dark(#ED7100,#FFFFFF);strokeColor=none;dashed=0;verticalLabelPosition=bottom;verticalAlign=top;align=center;html=1;fontSize=12;fontStyle=0;aspect=fixed;pointerEvents=1;shape=mxgraph.aws4.container_registry_image;" vertex="1" parent="1">
                    <mxGeometry x="760" y="1300" width="60" height="60" as="geometry"/>
                </mxCell>
                <mxCell id="76" value="" style="group" vertex="1" connectable="0" parent="1">
                    <mxGeometry x="680" y="920" width="20" height="10" as="geometry"/>
                </mxCell>
                <mxCell id="77" value="" style="endArrow=none;html=1;" edge="1" parent="76">
                    <mxGeometry width="50" height="50" relative="1" as="geometry">
                        <mxPoint as="sourcePoint"/>
                        <mxPoint x="20" as="targetPoint"/>
                    </mxGeometry>
                </mxCell>
                <mxCell id="78" value="" style="endArrow=none;html=1;" edge="1" parent="76">
                    <mxGeometry width="50" height="50" relative="1" as="geometry">
                        <mxPoint y="10" as="sourcePoint"/>
                        <mxPoint x="20" y="10" as="targetPoint"/>
                    </mxGeometry>
                </mxCell>
                <mxCell id="79" value="" style="endArrow=none;html=1;" edge="1" parent="76">
                    <mxGeometry width="50" height="50" relative="1" as="geometry">
                        <mxPoint y="4.800000000000011" as="sourcePoint"/>
                        <mxPoint x="20" y="4.800000000000011" as="targetPoint"/>
                    </mxGeometry>
                </mxCell>
                <mxCell id="80" value="" style="group" vertex="1" connectable="0" parent="1">
                    <mxGeometry x="670" y="1340" width="250" height="30" as="geometry"/>
                </mxCell>
                <mxCell id="81" value="" style="rounded=0;whiteSpace=wrap;html=1;" vertex="1" parent="80">
                    <mxGeometry width="250" height="30" as="geometry"/>
                </mxCell>
                <mxCell id="82" value="" style="dashed=0;outlineConnect=0;html=1;align=center;labelPosition=center;verticalLabelPosition=bottom;verticalAlign=top;shape=mxgraph.weblogos.feed;fillColor=#000000" vertex="1" parent="80">
                    <mxGeometry x="10" width="20" height="20" as="geometry"/>
                </mxCell>
                <mxCell id="83" value="" style="sketch=0;outlineConnect=0;fontColor=#232F3E;gradientColor=none;fillColor=light-dark(#232F3D,#FFFFFF);strokeColor=none;dashed=0;verticalLabelPosition=bottom;verticalAlign=top;align=center;html=1;fontSize=12;fontStyle=0;aspect=fixed;pointerEvents=1;shape=mxgraph.aws4.user;" vertex="1" parent="80">
                    <mxGeometry x="105" width="20" height="20" as="geometry"/>
                </mxCell>
                <mxCell id="84" value="" style="sketch=0;pointerEvents=1;shadow=0;dashed=0;html=1;strokeColor=none;fillColor=light-dark(#505050,#FFFFFF);labelPosition=center;verticalLabelPosition=bottom;verticalAlign=top;outlineConnect=0;align=center;shape=mxgraph.office.concepts.search;" vertex="1" parent="80">
                    <mxGeometry x="155" width="30" height="20" as="geometry"/>
                </mxCell>
                <mxCell id="85" value="" style="sketch=0;pointerEvents=1;shadow=0;dashed=0;html=1;strokeColor=none;fillColor=light-dark(#505050,#FFFFFF);labelPosition=center;verticalLabelPosition=bottom;verticalAlign=top;outlineConnect=0;align=center;shape=mxgraph.office.concepts.settings_office_365;" vertex="1" parent="80">
                    <mxGeometry x="210" width="30" height="20" as="geometry"/>
                </mxCell>
                <mxCell id="86" value="" style="html=1;verticalLabelPosition=bottom;align=center;labelBackgroundColor=#ffffff;verticalAlign=top;strokeWidth=2;strokeColor=light-dark(#0080F0,#FFFFFF);shadow=0;dashed=0;shape=mxgraph.ios7.icons.mail;" vertex="1" parent="80">
                    <mxGeometry x="50" y="3.5" width="30" height="16.5" as="geometry"/>
                </mxCell>
                <mxCell id="87" value="Feed" style="text;html=1;align=center;verticalAlign=middle;whiteSpace=wrap;rounded=0;fontSize=8;" vertex="1" parent="80">
                    <mxGeometry x="10" y="20" width="20" height="10" as="geometry"/>
                </mxCell>
                <mxCell id="88" value="Messages" style="text;html=1;align=center;verticalAlign=middle;whiteSpace=wrap;rounded=0;fontSize=8;" vertex="1" parent="80">
                    <mxGeometry x="42.5" y="20" width="45" height="10" as="geometry"/>
                </mxCell>
                <mxCell id="89" value="Profile" style="text;html=1;align=center;verticalAlign=middle;whiteSpace=wrap;rounded=0;fontSize=8;" vertex="1" parent="80">
                    <mxGeometry x="92.5" y="20" width="45" height="10" as="geometry"/>
                </mxCell>
                <mxCell id="90" value="Search" style="text;html=1;align=center;verticalAlign=middle;whiteSpace=wrap;rounded=0;fontSize=8;" vertex="1" parent="80">
                    <mxGeometry x="147.5" y="20" width="45" height="10" as="geometry"/>
                </mxCell>
                <mxCell id="91" value="Settings" style="text;html=1;align=center;verticalAlign=middle;whiteSpace=wrap;rounded=0;fontSize=8;" vertex="1" parent="80">
                    <mxGeometry x="202.5" y="20" width="45" height="10" as="geometry"/>
                </mxCell>
                <mxCell id="92" value="" style="rounded=0;whiteSpace=wrap;html=1;" vertex="1" parent="1">
                    <mxGeometry x="670" y="910" width="100" height="460" as="geometry"/>
                </mxCell>
                <mxCell id="93" value="" style="endArrow=none;html=1;" edge="1" parent="1">
                    <mxGeometry width="50" height="50" relative="1" as="geometry">
                        <mxPoint x="330" y="930" as="sourcePoint"/>
                        <mxPoint x="668" y="950" as="targetPoint"/>
                        <Array as="points">
                            <mxPoint x="330" y="950"/>
                        </Array>
                    </mxGeometry>
                </mxCell>
                <mxCell id="94" value="Home" style="text;html=1;align=center;verticalAlign=middle;whiteSpace=wrap;rounded=0;" vertex="1" parent="1">
                    <mxGeometry x="690" y="920" width="60" height="30" as="geometry"/>
                </mxCell>
                <mxCell id="95" value="" style="sketch=0;pointerEvents=1;shadow=0;dashed=0;html=1;strokeColor=none;fillColor=#505050;labelPosition=center;verticalLabelPosition=bottom;verticalAlign=top;outlineConnect=0;align=center;shape=mxgraph.office.concepts.home;" vertex="1" parent="1">
                    <mxGeometry x="680" y="930" width="15" height="10" as="geometry"/>
                </mxCell>
                <mxCell id="97" value="" style="verticalLabelPosition=bottom;shadow=0;dashed=0;align=center;html=1;verticalAlign=top;strokeWidth=1;shape=mxgraph.mockup.graphics.lineChart;strokeColor=none;strokeColor2=#666666;strokeColor3=#008cff;strokeColor4=#dddddd;fillColor=none;" vertex="1" parent="1">
                    <mxGeometry x="682.5" y="960" width="10" height="10" as="geometry"/>
                </mxCell>
                <mxCell id="98" value="Trending" style="text;html=1;align=center;verticalAlign=middle;whiteSpace=wrap;rounded=0;" vertex="1" parent="1">
                    <mxGeometry x="692.5" y="950" width="60" height="30" as="geometry"/>
                </mxCell>
                <mxCell id="99" value="" style="verticalLabelPosition=bottom;shadow=0;dashed=0;align=center;html=1;verticalAlign=top;shape=mxgraph.electrical.transmission.2_line_bus;" vertex="1" parent="1">
                    <mxGeometry x="670" y="980" width="100" height="20" as="geometry"/>
                </mxCell>
                <mxCell id="100" value="Followed Tags" style="text;html=1;align=center;verticalAlign=middle;whiteSpace=wrap;rounded=0;fontSize=10;" vertex="1" parent="1">
                    <mxGeometry x="675" y="975" width="90" height="30" as="geometry"/>
                </mxCell>
                <mxCell id="101" value="tag1" style="text;html=1;align=center;verticalAlign=middle;whiteSpace=wrap;rounded=0;" vertex="1" parent="1">
                    <mxGeometry x="686.25" y="1000" width="60" height="30" as="geometry"/>
                </mxCell>
                <mxCell id="102" value="" style="image;aspect=fixed;html=1;points=[];align=center;fontSize=12;image=img/lib/azure2/general/Tag.svg;" vertex="1" parent="1">
                    <mxGeometry x="678.75" y="1007" width="16.29" height="16" as="geometry"/>
                </mxCell>
                <mxCell id="105" value="tag2" style="text;html=1;align=center;verticalAlign=middle;whiteSpace=wrap;rounded=0;" vertex="1" parent="1">
                    <mxGeometry x="686.25" y="1023" width="60" height="30" as="geometry"/>
                </mxCell>
                <mxCell id="106" value="" style="image;aspect=fixed;html=1;points=[];align=center;fontSize=12;image=img/lib/azure2/general/Tag.svg;" vertex="1" parent="1">
                    <mxGeometry x="678.75" y="1030" width="16.29" height="16" as="geometry"/>
                </mxCell>
                <mxCell id="107" value="tag3" style="text;html=1;align=center;verticalAlign=middle;whiteSpace=wrap;rounded=0;" vertex="1" parent="1">
                    <mxGeometry x="686.25" y="1046" width="60" height="30" as="geometry"/>
                </mxCell>
                <mxCell id="108" value="" style="image;aspect=fixed;html=1;points=[];align=center;fontSize=12;image=img/lib/azure2/general/Tag.svg;" vertex="1" parent="1">
                    <mxGeometry x="678.75" y="1053" width="16.29" height="16" as="geometry"/>
                </mxCell>
                <mxCell id="109" value="" style="verticalLabelPosition=bottom;shadow=0;dashed=0;align=center;html=1;verticalAlign=top;shape=mxgraph.electrical.transmission.2_line_bus;" vertex="1" parent="1">
                    <mxGeometry x="670" y="1075" width="100" height="20" as="geometry"/>
                </mxCell>
                <mxCell id="110" value="Tag Groups" style="text;html=1;align=center;verticalAlign=middle;whiteSpace=wrap;rounded=0;fontSize=10;" vertex="1" parent="1">
                    <mxGeometry x="675" y="1070" width="90" height="30" as="geometry"/>
                </mxCell>
                <mxCell id="111" value="" style="image;aspect=fixed;html=1;points=[];align=center;fontSize=12;image=img/lib/azure2/general/Tags.svg;" vertex="1" parent="1">
                    <mxGeometry x="676.74" y="1104" width="14.77" height="16" as="geometry"/>
                </mxCell>
                <mxCell id="112" value="tag group 1" style="text;html=1;align=center;verticalAlign=middle;whiteSpace=wrap;rounded=0;" vertex="1" parent="1">
                    <mxGeometry x="686.25" y="1097" width="83.75" height="30" as="geometry"/>
                </mxCell>
                <mxCell id="113" value="" style="image;aspect=fixed;html=1;points=[];align=center;fontSize=12;image=img/lib/azure2/general/Tags.svg;" vertex="1" parent="1">
                    <mxGeometry x="675.8699999999999" y="1132" width="14.77" height="16" as="geometry"/>
                </mxCell>
                <mxCell id="114" value="tag group 2" style="text;html=1;align=center;verticalAlign=middle;whiteSpace=wrap;rounded=0;" vertex="1" parent="1">
                    <mxGeometry x="685.3800000000001" y="1125" width="83.75" height="30" as="geometry"/>
                </mxCell>
                <mxCell id="115" value="" style="rounded=0;whiteSpace=wrap;html=1;" vertex="1" parent="1">
                    <mxGeometry x="310" y="1410" width="250" height="460" as="geometry"/>
                </mxCell>
                <mxCell id="116" style="edgeStyle=none;html=1;exitX=1;exitY=0.25;exitDx=0;exitDy=0;entryX=1;entryY=0.233;entryDx=0;entryDy=0;entryPerimeter=0;" edge="1" parent="1" source="19" target="115">
                    <mxGeometry relative="1" as="geometry">
                        <Array as="points">
                            <mxPoint x="620" y="1003"/>
                            <mxPoint x="620" y="1517"/>
                        </Array>
                    </mxGeometry>
                </mxCell>
                <mxCell id="117" value="Post Title" style="text;html=1;align=center;verticalAlign=middle;whiteSpace=wrap;rounded=0;fontSize=20;" vertex="1" parent="1">
                    <mxGeometry x="340" y="1420" width="180" height="30" as="geometry"/>
                </mxCell>
                <mxCell id="118" value="tag1,tag2,tag3" style="text;html=1;align=center;verticalAlign=middle;whiteSpace=wrap;rounded=0;fontSize=10;" vertex="1" parent="1">
                    <mxGeometry x="340" y="1440" width="180" height="30" as="geometry"/>
                </mxCell>
                <mxCell id="119" value="Lorem ipsum dolor sit amet, consectetur adipiscing elit. Sed do eiusmod tempor incididunt ut labore et dolore magna aliqua. Ut enim ad minim veniam, quis nostrud exercitation ullamco laboris nisi ut aliquip ex ea commodo consequat. Duis aute irure dolor in reprehenderit in voluptate velit esse cillum dolore eu fugiat nulla pariatur. Excepteur sint occaecat cupidatat non proident, sunt in culpa qui officia deserunt mollit anim id est laborum." style="text;html=1;align=center;verticalAlign=middle;whiteSpace=wrap;rounded=0;" vertex="1" parent="1">
                    <mxGeometry x="320" y="1460" width="230" height="180" as="geometry"/>
                </mxCell>
                <mxCell id="121" value="" style="html=1;verticalLabelPosition=bottom;labelBackgroundColor=#ffffff;verticalAlign=top;shadow=0;dashed=0;strokeWidth=2;shape=mxgraph.ios7.misc.up;strokeColor=light-dark(#0080F0,#FFFFFF);fontColor=light-dark(#000000,#FFFFFF);" vertex="1" parent="1">
                    <mxGeometry x="320" y="1635" width="16" height="10" as="geometry"/>
                </mxCell>
                <mxCell id="122" value="" style="html=1;verticalLabelPosition=bottom;labelBackgroundColor=#ffffff;verticalAlign=top;shadow=0;dashed=0;strokeWidth=2;shape=mxgraph.ios7.misc.up;strokeColor=light-dark(#0080F0,#FFFFFF);fontColor=light-dark(#000000,#FFFFFF);direction=west;" vertex="1" parent="1">
                    <mxGeometry x="389" y="1635" width="16" height="10" as="geometry"/>
                </mxCell>
                <mxCell id="123" value="Upvote" style="text;html=1;align=center;verticalAlign=middle;whiteSpace=wrap;rounded=0;fontSize=8;" vertex="1" parent="1">
                    <mxGeometry x="306" y="1650" width="44" height="10" as="geometry"/>
                </mxCell>
                <mxCell id="124" value="Downvote" style="text;html=1;align=center;verticalAlign=middle;whiteSpace=wrap;rounded=0;fontSize=8;" vertex="1" parent="1">
                    <mxGeometry x="375" y="1650" width="44" height="10" as="geometry"/>
                </mxCell>
                <mxCell id="125" value="" style="html=1;verticalLabelPosition=bottom;align=center;labelBackgroundColor=#ffffff;verticalAlign=top;strokeWidth=2;strokeColor=light-dark(#0080F0,#FFFFFF);shadow=0;dashed=0;shape=mxgraph.ios7.icons.bookmark;" vertex="1" parent="1">
                    <mxGeometry x="465" y="1632.5" width="14" height="15" as="geometry"/>
                </mxCell>
                <mxCell id="126" value="Save" style="text;html=1;align=center;verticalAlign=middle;whiteSpace=wrap;rounded=0;fontSize=8;" vertex="1" parent="1">
                    <mxGeometry x="450" y="1650" width="44" height="10" as="geometry"/>
                </mxCell>
                <mxCell id="127" value="" style="html=1;verticalLabelPosition=bottom;align=center;labelBackgroundColor=#ffffff;verticalAlign=top;strokeWidth=2;strokeColor=light-dark(#0080F0,#FFFFFF);shadow=0;dashed=0;shape=mxgraph.ios7.icons.share;" vertex="1" parent="1">
                    <mxGeometry x="520" y="1631.25" width="18" height="17.5" as="geometry"/>
                </mxCell>
                <mxCell id="128" value="Share" style="text;html=1;align=center;verticalAlign=middle;whiteSpace=wrap;rounded=0;fontSize=8;" vertex="1" parent="1">
                    <mxGeometry x="507" y="1650" width="44" height="10" as="geometry"/>
                </mxCell>
                <mxCell id="129" value="" style="rounded=1;whiteSpace=wrap;html=1;" vertex="1" parent="1">
                    <mxGeometry x="320" y="1670" width="230" height="60" as="geometry"/>
                </mxCell>
                <mxCell id="130" value="username" style="text;html=1;align=center;verticalAlign=middle;whiteSpace=wrap;rounded=0;" vertex="1" parent="1">
                    <mxGeometry x="325" y="1670" width="64" height="10" as="geometry"/>
                </mxCell>
                <mxCell id="131" value="&lt;font style=&quot;font-size: 8px;&quot;&gt;Lorem ipsum dolor sit amet, consectetur adipiscing elit. Sed do eiusmod tempor incididunt ut labore et dolore magna aliqua. Ut enim ad minim veniam, quis nostrud exercitation ullamco laboris&lt;/font&gt;" style="text;html=1;align=center;verticalAlign=middle;whiteSpace=wrap;rounded=0;" vertex="1" parent="1">
                    <mxGeometry x="321" y="1680" width="230" height="40" as="geometry"/>
                </mxCell>
                <mxCell id="132" value="" style="group" vertex="1" connectable="0" parent="1">
                    <mxGeometry x="310" y="1840" width="250" height="30" as="geometry"/>
                </mxCell>
                <mxCell id="133" value="" style="rounded=0;whiteSpace=wrap;html=1;" vertex="1" parent="132">
                    <mxGeometry width="250" height="30" as="geometry"/>
                </mxCell>
                <mxCell id="134" value="" style="dashed=0;outlineConnect=0;html=1;align=center;labelPosition=center;verticalLabelPosition=bottom;verticalAlign=top;shape=mxgraph.weblogos.feed;fillColor=#000000" vertex="1" parent="132">
                    <mxGeometry x="10" width="20" height="20" as="geometry"/>
                </mxCell>
                <mxCell id="135" value="" style="sketch=0;outlineConnect=0;fontColor=#232F3E;gradientColor=none;fillColor=light-dark(#232F3D,#FFFFFF);strokeColor=none;dashed=0;verticalLabelPosition=bottom;verticalAlign=top;align=center;html=1;fontSize=12;fontStyle=0;aspect=fixed;pointerEvents=1;shape=mxgraph.aws4.user;" vertex="1" parent="132">
                    <mxGeometry x="105" width="20" height="20" as="geometry"/>
                </mxCell>
                <mxCell id="136" value="" style="sketch=0;pointerEvents=1;shadow=0;dashed=0;html=1;strokeColor=none;fillColor=light-dark(#505050,#FFFFFF);labelPosition=center;verticalLabelPosition=bottom;verticalAlign=top;outlineConnect=0;align=center;shape=mxgraph.office.concepts.search;" vertex="1" parent="132">
                    <mxGeometry x="155" width="30" height="20" as="geometry"/>
                </mxCell>
                <mxCell id="137" value="" style="sketch=0;pointerEvents=1;shadow=0;dashed=0;html=1;strokeColor=none;fillColor=light-dark(#505050,#FFFFFF);labelPosition=center;verticalLabelPosition=bottom;verticalAlign=top;outlineConnect=0;align=center;shape=mxgraph.office.concepts.settings_office_365;" vertex="1" parent="132">
                    <mxGeometry x="210" width="30" height="20" as="geometry"/>
                </mxCell>
                <mxCell id="138" value="" style="html=1;verticalLabelPosition=bottom;align=center;labelBackgroundColor=#ffffff;verticalAlign=top;strokeWidth=2;strokeColor=light-dark(#0080F0,#FFFFFF);shadow=0;dashed=0;shape=mxgraph.ios7.icons.mail;" vertex="1" parent="132">
                    <mxGeometry x="50" y="3.5" width="30" height="16.5" as="geometry"/>
                </mxCell>
                <mxCell id="139" value="Feed" style="text;html=1;align=center;verticalAlign=middle;whiteSpace=wrap;rounded=0;fontSize=8;" vertex="1" parent="132">
                    <mxGeometry x="10" y="20" width="20" height="10" as="geometry"/>
                </mxCell>
                <mxCell id="140" value="Messages" style="text;html=1;align=center;verticalAlign=middle;whiteSpace=wrap;rounded=0;fontSize=8;" vertex="1" parent="132">
                    <mxGeometry x="42.5" y="20" width="45" height="10" as="geometry"/>
                </mxCell>
                <mxCell id="141" value="Profile" style="text;html=1;align=center;verticalAlign=middle;whiteSpace=wrap;rounded=0;fontSize=8;" vertex="1" parent="132">
                    <mxGeometry x="92.5" y="20" width="45" height="10" as="geometry"/>
                </mxCell>
                <mxCell id="142" value="Search" style="text;html=1;align=center;verticalAlign=middle;whiteSpace=wrap;rounded=0;fontSize=8;" vertex="1" parent="132">
                    <mxGeometry x="147.5" y="20" width="45" height="10" as="geometry"/>
                </mxCell>
                <mxCell id="143" value="Settings" style="text;html=1;align=center;verticalAlign=middle;whiteSpace=wrap;rounded=0;fontSize=8;" vertex="1" parent="132">
                    <mxGeometry x="202.5" y="20" width="45" height="10" as="geometry"/>
                </mxCell>
                <mxCell id="144" value="" style="rounded=0;whiteSpace=wrap;html=1;" vertex="1" parent="1">
                    <mxGeometry x="1070" y="910" width="250" height="460" as="geometry"/>
                </mxCell>
                <mxCell id="145" value="&lt;font style=&quot;font-size: 20px; color: light-dark(rgb(0, 0, 0), rgb(255, 255, 255));&quot;&gt;tag1&lt;/font&gt;" style="text;html=1;align=center;verticalAlign=middle;whiteSpace=wrap;rounded=0;fontColor=light-dark(#000000,#FFFFFF);" vertex="1" parent="1">
                    <mxGeometry x="1165" y="920" width="60" height="30" as="geometry"/>
                </mxCell>
                <mxCell id="146" value="" style="rounded=1;whiteSpace=wrap;html=1;" vertex="1" parent="1">
                    <mxGeometry x="1080" y="970" width="230" height="130" as="geometry"/>
                </mxCell>
                <mxCell id="147" value="Post Title" style="text;html=1;align=center;verticalAlign=middle;whiteSpace=wrap;rounded=0;" vertex="1" parent="1">
                    <mxGeometry x="1165" y="970" width="60" height="30" as="geometry"/>
                </mxCell>
                <mxCell id="148" value="tag1,tag2,tag3" style="text;html=1;align=center;verticalAlign=middle;whiteSpace=wrap;rounded=0;" vertex="1" parent="1">
                    <mxGeometry x="1165" y="990" width="60" height="30" as="geometry"/>
                </mxCell>
                <mxCell id="149" value="" style="sketch=0;outlineConnect=0;fontColor=#232F3E;gradientColor=none;fillColor=light-dark(#ED7100,#FFFFFF);strokeColor=none;dashed=0;verticalLabelPosition=bottom;verticalAlign=top;align=center;html=1;fontSize=12;fontStyle=0;aspect=fixed;pointerEvents=1;shape=mxgraph.aws4.container_registry_image;" vertex="1" parent="1">
                    <mxGeometry x="1160" y="1020" width="60" height="60" as="geometry"/>
                </mxCell>
                <mxCell id="150" value="" style="rounded=1;whiteSpace=wrap;html=1;" vertex="1" parent="1">
                    <mxGeometry x="1080" y="1110" width="230" height="130" as="geometry"/>
                </mxCell>
                <mxCell id="151" value="Post Title" style="text;html=1;align=center;verticalAlign=middle;whiteSpace=wrap;rounded=0;" vertex="1" parent="1">
                    <mxGeometry x="1165" y="1110" width="60" height="30" as="geometry"/>
                </mxCell>
                <mxCell id="152" value="tag1,tag2,tag3" style="text;html=1;align=center;verticalAlign=middle;whiteSpace=wrap;rounded=0;" vertex="1" parent="1">
                    <mxGeometry x="1165" y="1130" width="60" height="30" as="geometry"/>
                </mxCell>
                <mxCell id="153" value="" style="sketch=0;outlineConnect=0;fontColor=#232F3E;gradientColor=none;fillColor=light-dark(#ED7100,#FFFFFF);strokeColor=none;dashed=0;verticalLabelPosition=bottom;verticalAlign=top;align=center;html=1;fontSize=12;fontStyle=0;aspect=fixed;pointerEvents=1;shape=mxgraph.aws4.container_registry_image;" vertex="1" parent="1">
                    <mxGeometry x="1160" y="1160" width="60" height="60" as="geometry"/>
                </mxCell>
                <mxCell id="154" value="" style="rounded=1;whiteSpace=wrap;html=1;" vertex="1" parent="1">
                    <mxGeometry x="1080" y="1250" width="230" height="120" as="geometry"/>
                </mxCell>
                <mxCell id="155" value="Post Title" style="text;html=1;align=center;verticalAlign=middle;whiteSpace=wrap;rounded=0;" vertex="1" parent="1">
                    <mxGeometry x="1165" y="1250" width="60" height="30" as="geometry"/>
                </mxCell>
                <mxCell id="156" value="tag1,tag2,tag3" style="text;html=1;align=center;verticalAlign=middle;whiteSpace=wrap;rounded=0;" vertex="1" parent="1">
                    <mxGeometry x="1165" y="1270" width="60" height="30" as="geometry"/>
                </mxCell>
                <mxCell id="157" value="" style="sketch=0;outlineConnect=0;fontColor=#232F3E;gradientColor=none;fillColor=light-dark(#ED7100,#FFFFFF);strokeColor=none;dashed=0;verticalLabelPosition=bottom;verticalAlign=top;align=center;html=1;fontSize=12;fontStyle=0;aspect=fixed;pointerEvents=1;shape=mxgraph.aws4.container_registry_image;" vertex="1" parent="1">
                    <mxGeometry x="1160" y="1300" width="60" height="60" as="geometry"/>
                </mxCell>
                <mxCell id="158" value="" style="group" vertex="1" connectable="0" parent="1">
                    <mxGeometry x="1080" y="920" width="20" height="10" as="geometry"/>
                </mxCell>
                <mxCell id="159" value="" style="endArrow=none;html=1;" edge="1" parent="158">
                    <mxGeometry width="50" height="50" relative="1" as="geometry">
                        <mxPoint as="sourcePoint"/>
                        <mxPoint x="20" as="targetPoint"/>
                    </mxGeometry>
                </mxCell>
                <mxCell id="160" value="" style="endArrow=none;html=1;" edge="1" parent="158">
                    <mxGeometry width="50" height="50" relative="1" as="geometry">
                        <mxPoint y="10" as="sourcePoint"/>
                        <mxPoint x="20" y="10" as="targetPoint"/>
                    </mxGeometry>
                </mxCell>
                <mxCell id="161" value="" style="endArrow=none;html=1;" edge="1" parent="158">
                    <mxGeometry width="50" height="50" relative="1" as="geometry">
                        <mxPoint y="4.800000000000011" as="sourcePoint"/>
                        <mxPoint x="20" y="4.800000000000011" as="targetPoint"/>
                    </mxGeometry>
                </mxCell>
                <mxCell id="162" value="" style="group" vertex="1" connectable="0" parent="1">
                    <mxGeometry x="1070" y="1340" width="250" height="30" as="geometry"/>
                </mxCell>
                <mxCell id="163" value="" style="rounded=0;whiteSpace=wrap;html=1;" vertex="1" parent="162">
                    <mxGeometry width="250" height="30" as="geometry"/>
                </mxCell>
                <mxCell id="164" value="" style="dashed=0;outlineConnect=0;html=1;align=center;labelPosition=center;verticalLabelPosition=bottom;verticalAlign=top;shape=mxgraph.weblogos.feed;fillColor=#000000" vertex="1" parent="162">
                    <mxGeometry x="10" width="20" height="20" as="geometry"/>
                </mxCell>
                <mxCell id="165" value="" style="sketch=0;outlineConnect=0;fontColor=#232F3E;gradientColor=none;fillColor=light-dark(#232F3D,#FFFFFF);strokeColor=none;dashed=0;verticalLabelPosition=bottom;verticalAlign=top;align=center;html=1;fontSize=12;fontStyle=0;aspect=fixed;pointerEvents=1;shape=mxgraph.aws4.user;" vertex="1" parent="162">
                    <mxGeometry x="105" width="20" height="20" as="geometry"/>
                </mxCell>
                <mxCell id="166" value="" style="sketch=0;pointerEvents=1;shadow=0;dashed=0;html=1;strokeColor=none;fillColor=light-dark(#505050,#FFFFFF);labelPosition=center;verticalLabelPosition=bottom;verticalAlign=top;outlineConnect=0;align=center;shape=mxgraph.office.concepts.search;" vertex="1" parent="162">
                    <mxGeometry x="155" width="30" height="20" as="geometry"/>
                </mxCell>
                <mxCell id="167" value="" style="sketch=0;pointerEvents=1;shadow=0;dashed=0;html=1;strokeColor=none;fillColor=light-dark(#505050,#FFFFFF);labelPosition=center;verticalLabelPosition=bottom;verticalAlign=top;outlineConnect=0;align=center;shape=mxgraph.office.concepts.settings_office_365;" vertex="1" parent="162">
                    <mxGeometry x="210" width="30" height="20" as="geometry"/>
                </mxCell>
                <mxCell id="168" value="" style="html=1;verticalLabelPosition=bottom;align=center;labelBackgroundColor=#ffffff;verticalAlign=top;strokeWidth=2;strokeColor=light-dark(#0080F0,#FFFFFF);shadow=0;dashed=0;shape=mxgraph.ios7.icons.mail;" vertex="1" parent="162">
                    <mxGeometry x="50" y="3.5" width="30" height="16.5" as="geometry"/>
                </mxCell>
                <mxCell id="169" value="Feed" style="text;html=1;align=center;verticalAlign=middle;whiteSpace=wrap;rounded=0;fontSize=8;" vertex="1" parent="162">
                    <mxGeometry x="10" y="20" width="20" height="10" as="geometry"/>
                </mxCell>
                <mxCell id="170" value="Messages" style="text;html=1;align=center;verticalAlign=middle;whiteSpace=wrap;rounded=0;fontSize=8;" vertex="1" parent="162">
                    <mxGeometry x="42.5" y="20" width="45" height="10" as="geometry"/>
                </mxCell>
                <mxCell id="171" value="Profile" style="text;html=1;align=center;verticalAlign=middle;whiteSpace=wrap;rounded=0;fontSize=8;" vertex="1" parent="162">
                    <mxGeometry x="92.5" y="20" width="45" height="10" as="geometry"/>
                </mxCell>
                <mxCell id="172" value="Search" style="text;html=1;align=center;verticalAlign=middle;whiteSpace=wrap;rounded=0;fontSize=8;" vertex="1" parent="162">
                    <mxGeometry x="147.5" y="20" width="45" height="10" as="geometry"/>
                </mxCell>
                <mxCell id="173" value="Settings" style="text;html=1;align=center;verticalAlign=middle;whiteSpace=wrap;rounded=0;fontSize=8;" vertex="1" parent="162">
                    <mxGeometry x="202.5" y="20" width="45" height="10" as="geometry"/>
                </mxCell>
                <mxCell id="174" style="edgeStyle=none;html=1;exitX=1;exitY=0.5;exitDx=0;exitDy=0;entryX=0;entryY=0.224;entryDx=0;entryDy=0;entryPerimeter=0;" edge="1" parent="1" source="101" target="144">
                    <mxGeometry relative="1" as="geometry"/>
                </mxCell>
            </root>
        </mxGraphModel>
    </diagram>
</mxfile>